<svg width="450" height="512" xmlns="http://www.w3.org/2000/svg">
 <defs>
  <style>.cls-1{fill:#d5e8fd;}.cls-2{fill:#b6dbfe;}.cls-3{fill:#fcbe29;}.cls-4{fill:#fe9022;}.cls-5{fill:#ffda2d;}</style>
 </defs>
 <title>support</title>
 <g>
  <title>background</title>
  <rect x="-1" y="-1" width="452" height="514" id="canvas_background" fill="none"/>
 </g>
 <g>
  <title>Layer 1</title>
  <path class="cls-5" d="m1795.531243,1716.972048l-217.013872,-217.013872a55.251732,55.251732 0 0 0 -78.124994,78.124994l217.013872,217.013872a55.251732,55.251732 0 0 0 78.124994,-78.124994z" id="svg_5"/>
  <desc transform="matrix(7.111111534966369,0,0,7.111111534966369,0,0) ">Experiment icon for website, application, printing, document, poster design, etc.</desc>
  <metadata transform="matrix(7.111111534966369,0,0,7.111111534966369,0,0) ">Experiment iconExperiment icon for website, application, printing, document, poster design, etc.Experimentideabulbbusinessinnovationtubechemical</metadata>
  <g stroke="null" id="svg_100">
   <g stroke="null" transform="matrix(7.534840503093676,0,0,7.534840503093676,-0.1324144201508375,-1.264565558756658) " id="svg_55">
    <path stroke="null" id="svg_57" fill="#f9e109" d="m34.312499,28.444259a1,1 0 0 1 -1,-1l0,-14a3,3 0 0 0 -3,-3l-8,0a3,3 0 0 0 -3,3l0,4a1,1 0 0 1 -2,0l0,-4a5,5 0 0 1 5,-5l8,0a5,5 0 0 1 5,5l0,14a1,1 0 0 1 -1,1z"/>
    <path stroke="null" id="svg_58" fill="#4891d3" d="m41.312499,43.444259l0,-12l-8,0l0,12l-6.66,15.23a3.88,3.88 0 0 0 -0.34,1.61l0,0.16a3,3 0 0 0 3,3l16,0a3,3 0 0 0 3,-3l0,-0.16a3.88,3.88 0 0 0 -0.34,-1.61l-6.66,-15.23z"/>
    <rect stroke="null" id="svg_59" fill="#4891d3" ry="2" rx="2" height="4" width="14" y="27.444259" x="30.312499"/>
    <path stroke="null" id="svg_60" fill="#2d72bc" d="m33.862499,49.444259l2.45,-6l0,-5a4,4 0 0 1 4,-4l1,0l0,-3l-8,0l0,12l-6.66,15.23a3.88,3.88 0 0 0 -0.34,1.61l0,0.16a3,3 0 0 0 3,3l16,0a3,3 0 0 0 3,-3l-7,0a8,8 0 0 1 -7.45,-11z"/>
    <path stroke="null" id="svg_61" fill="#57b7eb" d="m32.312499,27.444259l10,0a2,2 0 0 1 2,2l0,0a0,0 0 0 1 0,0l-10,0a2,2 0 0 1 -2,-2l0,0a0,0 0 0 1 0,0z"/>
    <circle stroke="null" id="svg_62" fill="#57b7eb" r="2" cy="57.444259" cx="34.312499"/>
    <path stroke="null" id="svg_63" fill="#4891d3" d="m34.312499,59.444259a2,2 0 0 0 1.7,-1a8.15,8.15 0 0 1 -2.14,-3a2,2 0 0 0 0.44,4z"/>
    <path stroke="null" id="svg_64" fill="#a1d51c" d="m1.312499,57.444259l17,0a4,4 0 0 1 4,4l0,2a0,0 0 0 1 0,0l-21,0a0,0 0 0 1 0,0l0,-6a0,0 0 0 1 0,0z"/>
    <path stroke="null" id="svg_65" fill="#a1d51c" d="m3.312499,10.444259l0,0a2,2 0 0 1 2,2l0,45a0,0 0 0 1 0,0l-4,0a0,0 0 0 1 0,0l0,-45a2,2 0 0 1 2,-2z"/>
    <path stroke="null" id="svg_66" fill="#fcbc04" d="m26.312499,22.444259a8,8 0 1 0 -13,6.24l0,3.76l10,0l0,-3.76a8,8 0 0 0 3,-6.24z"/>
    <rect stroke="null" id="svg_67" fill="#4891d3" ry="2" rx="2" height="4" width="14" y="32.444259" x="11.312499"/>
    <path stroke="null" id="svg_68" fill="#e59730" d="m14.312499,36.444259l8,0a0,0 0 0 1 0,0l0,0a4,4 0 0 1 -4,4l0,0a4,4 0 0 1 -4,-4l0,0a0,0 0 0 1 0,0z"/>
    <path stroke="null" id="svg_69" fill="#57b7eb" d="m13.312499,32.444259l10,0a2,2 0 0 1 2,2l0,0a0,0 0 0 1 0,0l-10,0a2,2 0 0 1 -2,-2l0,0a0,0 0 0 1 0,0z"/>
    <path stroke="null" id="svg_70" fill="#fcbc04" d="m22.172499,37.444259l-0.86,0a3,3 0 0 0 -3,3a4,4 0 0 0 3.86,-3z"/>
    <path stroke="null" id="svg_71" fill="#e59730" d="m23.312499,28.444259a10,10 0 0 1 -9.68,-12.48a8,8 0 0 0 -0.32,12.72l0,3.76l10,0l0,-3.76l0.28,-0.25l-0.28,0.01z"/>
    <ellipse stroke="null" id="svg_72" fill="#f9e109" transform="rotate(-45 -6.507501602172856,23.984262466430664) " ry="2" rx="1.5" cy="40.57426" cx="17.082499"/>
    <path stroke="null" id="svg_73" fill="#c4f236" d="m3.312499,10.444259l0,0a2,2 0 0 1 2,2l0,47a0,0 0 0 1 0,0l0,0a2,2 0 0 1 -2,-2l0,-47a0,0 0 0 1 0,0z"/>
    <path stroke="null" id="svg_74" fill="#c4f236" d="m3.312499,57.444259l16,0a3,3 0 0 1 3,3l0,0a0,0 0 0 1 0,0l-17,0a2,2 0 0 1 -2,-2l0,-1a0,0 0 0 1 0,0z"/>
    <path stroke="null" id="svg_75" fill="#7ab92d" d="m48.312499,15.444259l8,0a0,0 0 0 1 0,0l0,26a4,4 0 0 1 -4,4l0,0a4,4 0 0 1 -4,-4l0,-26a0,0 0 0 1 0,0z"/>
    <rect stroke="null" id="svg_76" fill="#a1d51c" ry="2" rx="2" height="4" width="14" y="11.444259" x="45.312499"/>
    <path stroke="null" id="svg_77" fill="#a1d51c" d="m56.312499,18.444259l0,0a0,0 0 0 1 0,0l0,20a0,0 0 0 1 0,0l0,0a4,4 0 0 1 -4,-4l0,-12a4,4 0 0 1 4,-4z"/>
    <path stroke="null" id="svg_78" fill="#c4f236" d="m47.312499,11.444259l10,0a2,2 0 0 1 2,2l0,0a0,0 0 0 1 0,0l-10,0a2,2 0 0 1 -2,-2l0,0a0,0 0 0 1 0,0z"/>
    <circle stroke="null" id="svg_79" fill="#a1d51c" r="1" cy="23.444259" cx="52.312499"/>
    <circle stroke="null" id="svg_80" fill="#a1d51c" r="1" cy="31.444259" cx="52.312499"/>
    <circle stroke="null" id="svg_81" fill="#a1d51c" r="1" cy="38.444259" cx="52.312499"/>
    <path stroke="null" id="svg_82" fill="#c4f236" d="m52.312499,30.444259l0,0a1,1 0 0 1 1,1l0,0a1,1 0 0 1 -1,1l0,0a0,0 0 0 1 0,0l0,-2a0,0 0 0 1 0,0z"/>
    <path stroke="null" id="svg_83" fill="#c4f236" d="m52.312499,22.444259l0,0a1,1 0 0 1 1,1l0,0a1,1 0 0 1 -1,1l0,0a0,0 0 0 1 0,0l0,-2a0,0 0 0 1 0,0z"/>
    <path stroke="null" id="svg_84" fill="#7ab92d" d="m11.312499,35.444259l-10,0a1,1 0 0 1 0,-2l10,0a1,1 0 0 1 0,2z"/>
    <path stroke="null" id="svg_85" fill="#f9e109" d="m38.312499,34.444259a1,1 0 0 1 -1,-1l0,-24a5,5 0 0 1 5,-5l6,0a5,5 0 0 1 5,5l0,9a1,1 0 0 1 -2,0l0,-9a3,3 0 0 0 -3,-3l-6,0a3,3 0 0 0 -3,3l0,24a1,1 0 0 1 -1,1z"/>
    <path stroke="null" id="svg_86" fill="#fcbc04" d="m37.312499,33.444259a1,1 0 0 0 2,0l0,-6l-2,0l0,6z"/>
    <path stroke="null" id="svg_87" fill="#fcbc04" d="m51.312499,11.444259l0,7a1,1 0 0 0 2,0l0,-7l-2,0z"/>
    <circle stroke="null" id="svg_88" fill="#57b7eb" r="1" cy="51.444259" cx="37.312499"/>
    <circle stroke="null" id="svg_89" fill="#57b7eb" r="1" cy="57.444259" cx="42.312499"/>
    <path stroke="null" id="svg_90" fill="#7ab92d" d="m10.312499,23.444259l-9,0a1,1 0 0 1 0,-2l9,0a1,1 0 0 1 0,2z"/>
    <path stroke="null" id="svg_91" fill="#fcbc04" d="m26.312499,22.444259a8,8 0 1 0 -13,6.24l0,3.76l10,0l0,-3.76a8,8 0 0 0 3,-6.24z"/>
    <path stroke="null" id="svg_92" fill="#e59730" d="m14.312499,36.444259l8,0a0,0 0 0 1 0,0l0,0a4,4 0 0 1 -4,4l0,0a4,4 0 0 1 -4,-4l0,0a0,0 0 0 1 0,0z"/>
    <path stroke="null" id="svg_93" fill="#fcbc04" d="m22.172499,37.444259l-0.86,0a3,3 0 0 0 -3,3a4,4 0 0 0 3.86,-3z"/>
    <path stroke="null" id="svg_94" fill="#e59730" d="m23.312499,28.444259a10,10 0 0 1 -9.68,-12.48a8,8 0 0 0 -0.32,12.72l0,3.76l10,0l0,-3.76l0.28,-0.25l-0.28,0.01z"/>
    <path stroke="null" id="svg_95" fill="#f9e109" d="m20.312499,33.444259a1,1 0 0 1 -1,-1l0,-8a1,1 0 0 1 0.55,-0.89l1.45,-0.73l0,-1.1l-2.76,0.72a1,1 0 0 1 -0.48,0l-2.76,-0.72l0,1.1l1.45,0.73a1,1 0 0 1 0.55,0.89l0,8a1,1 0 0 1 -2,0l0,-7.38l-1.45,-0.73a1,1 0 0 1 -0.55,-0.89l0,-3a1,1 0 0 1 0.38,-0.79a1,1 0 0 1 0.86,-0.18l3.76,0.97l3.76,-1a1,1 0 0 1 0.86,0.18a1,1 0 0 1 0.38,0.82l0,3a1,1 0 0 1 -0.55,0.89l-1.45,0.73l0,7.38a1,1 0 0 1 -1,1z"/>
    <rect stroke="null" id="svg_96" fill="#4891d3" ry="2" rx="2" height="4" width="14" y="32.444259" x="11.312499"/>
    <path stroke="null" id="svg_97" fill="#57b7eb" d="m13.312499,32.444259l10,0a2,2 0 0 1 2,2l0,0a0,0 0 0 1 0,0l-10,0a2,2 0 0 1 -2,-2l0,0a0,0 0 0 1 0,0z"/>
    <path stroke="null" id="svg_98" fill="#fcbc04" d="m13.442499,19.974259a1,1 0 0 0 -0.13,0.47l0,3a1,1 0 0 0 0.55,0.89l1.45,0.73l0,7.38l2,0l0,-6a10,10 0 0 1 -3.87,-6.47z"/>
    <path stroke="null" id="svg_99" fill="#fcbc04" d="m19.312499,27.604259l0,4.84l2,0l0,-4.2a9.72,9.72 0 0 1 -2,-0.64z"/>
   </g>
  </g>
 </g>
</svg>