<svg width="450" height="512" xmlns="http://www.w3.org/2000/svg">
 <defs>
  <style>.cls-1{fill:#d5e8fd;}.cls-2{fill:#b6dbfe;}.cls-3{fill:#fcbe29;}.cls-4{fill:#fe9022;}.cls-5{fill:#ffda2d;}</style>
 </defs>
 <title>support</title>
 <g>
  <title>background</title>
  <rect x="-1" y="-1" width="452" height="514" id="canvas_background" fill="none"/>
 </g>
 <g>
  <title>Layer 1</title>
  <path class="cls-5" d="m1795.531243,1716.972048l-217.013872,-217.013872a55.251732,55.251732 0 0 0 -78.124994,78.124994l217.013872,217.013872a55.251732,55.251732 0 0 0 78.124994,-78.124994z" id="svg_5"/>
  <g stroke="null" id="svg_50">
   <path stroke="null" id="svg_4" fill="#4891d3" d="m309.480943,63.997873l69.120769,0a23.040256,23.040256 0 0 1 23.040256,23.040256a23.040256,23.040256 0 0 1 -23.040256,23.040256l-46.080513,0a23.040256,23.040256 0 0 1 -23.040256,-23.040256l0,-23.040256a0,0 0 0 1 0,0z"/>
   <path stroke="null" id="svg_6" fill="#a1d51c" d="m332.521199,156.158898l46.080513,0a30.720342,30.720342 0 0 1 30.720342,30.720342l0,46.080513a0,0 0 0 1 0,0l-107.521197,0a0,0 0 0 1 0,0l0,-46.080513a30.720342,30.720342 0 0 1 30.720342,-30.720342z"/>
   <path stroke="null" id="svg_7" fill="#fcbc04" d="m340.201284,140.798727l30.720342,0a0,0 0 0 1 0,0l0,30.720342a15.360171,15.360171 0 0 1 -15.360171,15.360171a15.360171,15.360171 0 0 1 -15.360171,-15.360171l0,-30.720342a0,0 0 0 1 0,0z"/>
   <path stroke="null" id="svg_8" fill="#e59730" d="m340.201284,170.443857a31.41155,31.41155 0 0 0 7.680085,1.075212a30.720342,30.720342 0 0 0 23.040256,-10.598518l0,-20.121824l-30.720342,0l0,29.64513z"/>
   <path stroke="null" id="svg_9" fill="#f9e109" d="m324.841113,94.718215l61.440684,0a0,0 0 0 1 0,0l0,30.720342a30.720342,30.720342 0 0 1 -30.720342,30.720342a30.720342,30.720342 0 0 1 -30.720342,-30.720342l0,-30.720342a0,0 0 0 1 0,0z"/>
   <path stroke="null" id="svg_10" fill="#7ab92d" d="m317.161028,171.519069l0,-11.136124a30.720342,30.720342 0 0 0 -15.360171,26.496295l0,46.080513l107.521197,0l0,-15.360171l-46.080513,0a46.080513,46.080513 0 0 1 -46.080513,-46.080513z"/>
   <path stroke="null" id="svg_11" fill="#57b7eb" d="m347.88137,79.358044l52.378183,0a23.040256,23.040256 0 0 0 -21.657841,-15.360171l-46.080513,0a15.360171,15.360171 0 0 0 15.360171,15.360171z"/>
   <path stroke="null" id="svg_12" fill="#fcbc04" d="m340.201284,125.438556a15.360171,15.360171 0 0 1 15.360171,-15.360171l30.720342,0l0,-15.360171l-61.440684,0l0,30.720342a30.720342,30.720342 0 0 0 30.720342,30.720342a31.41155,31.41155 0 0 0 7.680085,-1.075212a30.720342,30.720342 0 0 1 -23.040256,-29.64513z"/>
   <path stroke="null" id="svg_13" fill="#4891d3" d="m48.358037,63.997873l69.120769,0a23.040256,23.040256 0 0 1 23.040256,23.040256a23.040256,23.040256 0 0 1 -23.040256,23.040256l-46.080513,0a23.040256,23.040256 0 0 1 -23.040256,-23.040256l0,-23.040256a0,0 0 0 1 0,0z"/>
   <path stroke="null" id="svg_14" fill="#a1d51c" d="m71.398293,156.158898l46.080513,0a30.720342,30.720342 0 0 1 30.720342,30.720342l0,46.080513a0,0 0 0 1 0,0l-107.521197,0a0,0 0 0 1 0,0l0,-46.080513a30.720342,30.720342 0 0 1 30.720342,-30.720342z"/>
   <path stroke="null" id="svg_15" fill="#fcbc04" d="m79.078378,140.798727l30.720342,0a0,0 0 0 1 0,0l0,30.720342a15.360171,15.360171 0 0 1 -15.360171,15.360171a15.360171,15.360171 0 0 1 -15.360171,-15.360171l0,-30.720342a0,0 0 0 1 0,0z"/>
   <path stroke="null" id="svg_16" fill="#e59730" d="m79.078378,170.443857a31.41155,31.41155 0 0 0 7.680085,1.075212a30.720342,30.720342 0 0 0 23.040256,-10.598518l0,-20.121824l-30.720342,0l0,29.64513z"/>
   <path stroke="null" id="svg_17" fill="#f9e109" d="m63.718208,94.718215l61.440684,0a0,0 0 0 1 0,0l0,30.720342a30.720342,30.720342 0 0 1 -30.720342,30.720342a30.720342,30.720342 0 0 1 -30.720342,-30.720342l0,-30.720342a0,0 0 0 1 0,0z"/>
   <path stroke="null" id="svg_18" fill="#7ab92d" d="m56.038122,171.519069l0,-11.136124a30.720342,30.720342 0 0 0 -15.360171,26.496295l0,46.080513l107.521197,0l0,-15.360171l-46.080513,0a46.080513,46.080513 0 0 1 -46.080513,-46.080513z"/>
   <path stroke="null" id="svg_19" fill="#57b7eb" d="m86.758464,79.358044l52.378183,0a23.040256,23.040256 0 0 0 -21.657841,-15.360171l-46.080513,0a15.360171,15.360171 0 0 0 15.360171,15.360171z"/>
   <path stroke="null" id="svg_20" fill="#fcbc04" d="m79.078378,125.438556a15.360171,15.360171 0 0 1 15.360171,-15.360171l30.720342,0l0,-15.360171l-61.440684,0l0,30.720342a30.720342,30.720342 0 0 0 30.720342,30.720342a31.41155,31.41155 0 0 0 7.680085,-1.075212a30.720342,30.720342 0 0 1 -23.040256,-29.64513z"/>
   <path stroke="null" id="svg_21" fill="#a1d51c" d="m178.91949,163.838984l92.161026,0a30.720342,30.720342 0 0 1 30.720342,30.720342l0,69.120769a0,0 0 0 1 0,0l-153.601709,0a0,0 0 0 1 0,0l0,-69.120769a30.720342,30.720342 0 0 1 30.720342,-30.720342z"/>
   <path stroke="null" id="svg_22" fill="#7ab92d" d="m271.080515,248.319924l0,-38.400427a15.360171,15.360171 0 0 0 -15.360171,15.360171l0,23.040256a61.440684,61.440684 0 0 1 -61.440684,-61.440684l0,-23.040256l-15.360171,0a30.720342,30.720342 0 0 0 -30.720342,30.720342l0,69.120769l153.601709,0l0,-15.360171l-30.720342,0z"/>
   <path stroke="null" id="svg_23" fill="#f9e109" d="m271.080515,232.959753l30.720342,0l0,30.720342l-30.720342,0l0,-30.720342z"/>
   <g stroke="null" transform="matrix(7.680085467833075,0,0,7.680085467833075,-22.983046459424145,-22.98308809965272) " id="svg_24" fill="#fcbc04">
    <path stroke="null" id="svg_25" d="m39.2891,34.32552l0,-1l-1,0l0,4l4,0l0,-1l-1,0a2,2 0 0 1 -2,-2z"/>
    <path stroke="null" id="svg_26" d="m26.2891,37.32552l-4,0l0,-4l4,0l0,4z"/>
    <path stroke="null" id="svg_27" d="m28.2891,20.32552l0,4l4,5l4,-5l0,-4l-8,0z"/>
   </g>
   <path stroke="null" id="svg_28" fill="#e59730" d="m194.27966,163.838984l10.982522,13.670552a44.851699,44.851699 0 0 0 12.057734,1.689619a46.080513,46.080513 0 0 0 38.400427,-20.65943l0,-25.421083l-61.440684,0l0,30.720342z"/>
   <path stroke="null" id="svg_29" fill="#4891d3" d="m155.879233,33.277531l99.841111,0a38.400427,38.400427 0 0 1 38.400427,38.400427a38.400427,38.400427 0 0 1 -38.400427,38.400427l-61.440684,0a38.400427,38.400427 0 0 1 -38.400427,-38.400427l0,-38.400427a0,0 0 0 1 0,0z"/>
   <path stroke="null" id="svg_30" fill="#57b7eb" d="m178.91949,33.277531l84.48094,0a30.720342,30.720342 0 0 1 30.720342,30.720342a0,0 0 0 1 0,0l-84.48094,0a30.720342,30.720342 0 0 1 -30.720342,-30.720342a0,0 0 0 1 0,0z"/>
   <path stroke="null" id="svg_31" fill="#f9e109" d="m178.91949,71.677958l92.161026,0a0,0 0 0 1 0,0l0,46.080513a46.080513,46.080513 0 0 1 -46.080513,46.080513a46.080513,46.080513 0 0 1 -46.080513,-46.080513l0,-46.080513a0,0 0 0 1 0,0z"/>
   <path stroke="null" id="svg_32" fill="#fcbc04" d="m201.959746,117.758471a23.040256,23.040256 0 0 1 23.040256,-23.040256l46.080513,0l0,-23.040256l-92.161026,0l0,46.080513a46.080513,46.080513 0 0 0 46.080513,46.080513a43.853288,43.853288 0 0 0 11.520128,-1.536017a46.080513,46.080513 0 0 1 -34.560385,-44.544496z"/>
   <circle stroke="null" transform="matrix(7.680085467833075,0,0,7.680085467833075,-22.983046459424145,-22.98308809965272) " id="svg_33" r="1" fill="#2d72bc" cy="16.32552" cx="29.2891"/>
   <circle stroke="null" transform="matrix(7.680085467833075,0,0,7.680085467833075,-22.983046459424145,-22.98308809965272) " id="svg_34" r="1" fill="#2d72bc" cy="16.32552" cx="35.2891"/>
   <path stroke="null" id="svg_35" fill="#2d72bc" d="m225.000002,140.798727a23.040256,23.040256 0 0 1 -16.281781,-6.758475a7.680085,7.680085 0 0 1 10.828921,-10.828921a7.680085,7.680085 0 0 0 10.905721,0a7.680085,7.680085 0 0 1 10.828921,10.828921a23.040256,23.040256 0 0 1 -16.281781,6.758475z"/>
   <path stroke="null" id="svg_36" fill="#fcbc04" d="m340.201284,478.722488l-92.161026,0l0,-92.161026l76.800855,0l15.360171,92.161026z"/>
   <path stroke="null" id="svg_37" fill="#f9e109" d="m422.070995,286.720351l-58.829455,53.760598l-69.120769,0a46.080513,46.080513 0 0 0 -46.080513,46.080513l114.740477,0a46.080513,46.080513 0 0 0 37.325215,-18.969811l44.774898,-61.440684a14.668963,14.668963 0 0 0 2.304026,-12.59534c-3.302437,-12.672141 -15.513773,-15.28337 -25.113879,-6.835276z"/>
   <path stroke="null" id="svg_38" fill="#fcbc04" d="m109.79872,478.722488l92.161026,0l0,-92.161026l-76.800855,0l-15.360171,92.161026z"/>
   <path stroke="null" id="svg_39" fill="#fcbc04" d="m27.929009,286.720351l58.829455,53.760598l69.120769,0a46.080513,46.080513 0 0 1 46.080513,46.080513l-114.740477,0a46.080513,46.080513 0 0 1 -37.325215,-18.969811l-44.774898,-61.440684a14.668963,14.668963 0 0 1 -2.304026,-12.59534c3.302437,-12.672141 15.513773,-15.28337 25.113879,-6.835276z"/>
   <path stroke="null" id="svg_40" fill="#f9e109" d="m45.593206,333.261669a32.563562,32.563562 0 0 0 41.165258,7.21928l-58.829455,-53.760598a14.36176,14.36176 0 0 0 -22.118646,0l39.782843,46.541318z"/>
   <path stroke="null" id="svg_41" fill="#fcbc04" d="m131.072557,363.982011l41.933267,-15.360171l-33.331571,-47.232526a16.896188,16.896188 0 0 0 -22.272248,-4.915255a16.972989,16.972989 0 0 0 -6.988878,21.58104l20.65943,45.926911z"/>
   <path stroke="null" id="svg_42" fill="#e59730" d="m324.841113,386.561462l-26.803498,0a5.222458,5.222458 0 0 0 -3.916844,8.678497l39.859644,45.542907l-9.139302,-54.221403z"/>
   <path stroke="null" id="svg_43" fill="#fcbc04" d="m319.772257,362.215591l32.486762,-21.734642l-22.733053,0l-9.753709,21.734642z"/>
   <path stroke="null" id="svg_44" fill="#fcbc04" d="m442.960828,285.645139l-42.854877,58.906256a46.080513,46.080513 0 0 1 -37.325215,18.969811l-22.579451,0a46.080513,46.080513 0 0 1 -39.859644,-23.040256l-6.220869,0a46.080513,46.080513 0 0 0 -46.080513,46.080513l114.740477,0a46.080513,46.080513 0 0 0 37.325215,-18.969811l44.774898,-61.440684a14.668963,14.668963 0 0 0 2.304026,-12.59534a17.126591,17.126591 0 0 0 -4.224047,-7.910488z"/>
   <path stroke="null" id="svg_45" fill="#f9e109" d="m318.927448,363.982011l-41.933267,-15.360171l33.331571,-47.232526a16.896188,16.896188 0 0 1 22.272248,-4.915255a16.972989,16.972989 0 0 1 6.988878,21.58104l-20.65943,45.926911z"/>
   <path stroke="null" id="svg_46" fill="#fcbc04" d="m315.471409,308.224591l9.753709,-13.824154a16.896188,16.896188 0 0 0 -14.899366,7.065679l-33.331571,47.232526l41.933267,15.360171l5.452861,-12.057734a30.720342,30.720342 0 0 1 -8.908899,-43.776487z"/>
   <path stroke="null" id="svg_47" fill="#e59730" d="m125.158891,386.561462l26.803498,0a5.222458,5.222458 0 0 1 3.916844,8.678497l-39.859644,45.542907l9.139302,-54.221403z"/>
   <path stroke="null" id="svg_48" fill="#f9e109" d="m168.551374,342.247369l-28.877121,-40.858055a16.896188,16.896188 0 0 0 -21.350638,-5.299259l12.672141,25.421083a162.510608,162.510608 0 0 0 11.289726,18.969811a163.278617,163.278617 0 0 0 36.634008,38.400427l0,53.760598a23.040256,23.040256 0 0 0 23.040256,23.040256l0,-69.120769a46.080513,46.080513 0 0 0 -33.408372,-44.314093z"/>
   <path stroke="null" id="svg_49" fill="#e59730" d="m129.53654,362.215591l-32.486762,-21.734642l22.733053,0l9.753709,21.734642z"/>
  </g>
 </g>
</svg>